<?xml version="1.0" encoding="UTF-8" standalone="no"?><!DOCTYPE svg PUBLIC "-//W3C//DTD SVG 1.1//EN"
        "http://www.w3.org/Graphics/SVG/1.1/DTD/svg11.dtd">
<svg width="100%" height="100%" viewBox="0 0 8334 8334" version="1.1" xmlns="http://www.w3.org/2000/svg"
     xmlns:xlink="http://www.w3.org/1999/xlink" xml:space="preserve" xmlns:serif="http://www.serif.com/"
     style="fill-rule:evenodd;clip-rule:evenodd;stroke-linejoin:round;stroke-miterlimit:2;" fill="#ffffff"><rect id="ArtBoard1" x="-0" y="0" width="8333.333" height="8333.333" style="fill:none;"/>
    <path d="M4732.922,4930.104c-0.191,-3.416 -0.059,-6.795 0.401,-10.174c6.175,-45.291 71.513,-90.732 213.459,-230.153c58.26,-57.223 123.75,-108.906 147.367,-141.451c5.548,-7.646 8.786,-14.236 9.075,-19.593c0.839,-15.522 -19.166,-37.184 -39.557,-70.333c-5.451,-8.862 -16.241,-24.188 -29.387,-42.857c-31.673,-44.978 -77.023,-109.358 -94.338,-149.473c-1.928,-4.468 -2.473,-8.65 -1.958,-12.35c2.337,-16.819 26.542,-23.681 41.987,-2.177c28.208,39.273 38.183,46.103 57.975,69.521c6.294,7.447 13.58,16.57 22.762,28.948c11.667,15.729 21.712,29.616 30.499,41.803c43.553,60.407 56.176,79.012 82.074,72.861c3.546,-0.842 7.553,-2.878 11.957,-5.842c18.358,-12.354 43.63,-40.824 71.337,-66.122c7.69,-7.022 15.568,-13.799 23.538,-19.919c4.858,-3.731 9.751,-7.218 14.656,-10.368c14.076,-9.038 28.254,-15.297 42.022,-16.568c29.034,-2.681 40.536,0.865 119.06,77.936c67.609,66.357 70.251,69.426 71.902,76.979l0.191,0.9c2.638,12.644 -5.145,60.115 -51.201,24.816c-39.115,-29.979 -35.208,-34.487 -98.058,-80.702l-1.624,-1.187c-27.253,-19.8 -42.779,-24.687 -68.456,-9.438c-16.195,9.618 -36.428,27.245 -66.189,54.192c-3.656,3.311 -20.324,16.786 -33.446,32.573c-10.706,12.881 -19.052,27.301 -16.042,38.994c0.434,1.686 1.104,3.314 2.037,4.874c3.557,7.947 8.722,17.544 13.607,30.688c28.074,75.554 42.224,110.15 31.775,118.214c-13.183,10.174 -23.16,-16.789 -24.012,-19.091c-11.307,-30.557 -44.354,-103.434 -61.342,-108.259c-8.142,-2.312 -11.312,-1.222 -27.123,13.038c-8.903,5.419 -22.366,17.361 -48.955,42.521c-252.467,238.899 -308.339,260.073 -273.206,308.6c25.163,34.756 365.166,344.07 493.273,470.22c33.727,33.212 59.56,54.218 211.745,202.84c80.433,78.551 95.316,106.936 130.341,90.913c13.485,-6.169 214.086,-189.138 261.798,-234.994c41.133,-39.533 70.052,-75.924 96.464,-70.809c0.088,0.017 29.16,10.859 12.92,38.697c-1.694,2.905 -3.882,5.994 -6.648,9.276c-27.24,32.325 -68.314,65.077 -143.691,132.939c-26.623,23.969 -57.525,52.317 -93.609,86.574c-47.882,45.458 -78.401,71.032 -98.768,85.508c-25.554,18.162 -35.125,18.85 -42.955,19.414c-48.853,3.516 -102.13,-73.472 -316.833,-274.634c-32.16,-30.131 -30.868,-30.996 -63.508,-61.072c-121.79,-112.223 -119.014,-114.775 -240.41,-227.806c-41.89,-39.003 -64.581,-60.751 -85.542,-80.548c-25.619,-24.198 -48.652,-45.484 -100.995,-91.809c-3.174,-2.809 -68.022,-65.552 -78.597,-88.26c-4.649,-9.983 -7.281,-19.044 -7.773,-27.852Zm1805.436,-2403.676c5.626,-7.812 14.532,-12.601 24.151,-12.986c9.619,-0.386 18.88,3.675 25.113,11.011c428.396,506.899 701.69,1149.02 746.347,1852.83c0.443,7.251 -3.294,14.117 -9.623,17.683c-6.329,3.566 -14.138,3.204 -20.111,-0.931c-9.582,-6.652 -20.167,-14.131 -32.328,-22.877c-20.315,-14.611 -24.718,-15.057 -62.453,-42.158c-7.197,-5.152 -11.785,-13.189 -12.563,-22.006c-56.926,-637.734 -309.913,-1219.405 -698.19,-1684.24c-10.031,-11.962 -10.316,-29.313 -0.685,-41.599c9.366,-12.131 19.088,-25.029 36.927,-49.968l3.416,-4.76Zm-4945.45,355.285c5.01,5 5.805,12.838 1.901,18.742c-318.423,482.622 -503.827,1060.595 -503.827,1681.53c0,850.076 347.49,1619.631 908.053,2174.248c3.094,3.059 4.448,7.465 3.607,11.733c-2.157,10.992 -2.108,16.679 -14.094,46.785c-6.73,16.906 -12.708,37.034 -17.207,53.869c-2.001,7.215 -7.648,12.847 -14.869,14.828c-7.221,1.981 -14.951,0.02 -20.354,-5.164c-601.883,-580.408 -976.471,-1394.954 -976.471,-2296.3c0,-655.927 198.373,-1265.886 538.345,-1773.107c2.182,-3.246 5.702,-5.344 9.595,-5.72c3.893,-0.376 7.749,1.011 10.511,3.78c27.62,27.664 59.751,59.746 74.81,74.775Zm4760.133,3855.169c-8.779,-9.644 -8.559,-24.448 0.503,-33.826c176.898,-183.748 331.076,-389.524 457.971,-612.793c2.877,-5.082 7.761,-8.716 13.455,-10.011c5.694,-1.295 11.67,-0.132 16.462,3.205c22.115,16.097 56.465,41.582 75.053,55.421c7.388,5.614 9.473,15.833 4.875,23.893c-134.188,234.568 -297.298,450.505 -484.454,642.935c-4.408,4.514 -10.618,6.8 -16.901,6.221c-6.283,-0.579 -11.97,-3.961 -15.479,-9.204c-17.061,-25.321 -34.903,-47.357 -51.484,-65.84Zm-2328.229,-656.469c-3.649,-3.192 -7.98,0.501 -18.042,-15.783c-5.974,-9.668 -4.149,-35.165 -5.52,-47.101c-4.04,-35.188 -43.742,-119.612 -89.387,-174.735c-20.228,-24.429 -79.759,-54.132 -91.856,-57.566c-13.757,-3.905 -16.146,-4.584 -178.672,-5.602c-331.574,-2.077 -342.772,-0.307 -372.183,4.344c-79.12,12.512 -133.266,79.376 -178.644,124.163c-34.522,34.073 -42.967,26.12 -82.605,-1.815c-115.942,-81.713 -169.74,-99.279 -235.068,-100.143c-88.983,-1.177 -94.216,4.471 -98.266,-7.777c-6.602,-19.962 -3.49,-20.772 8.329,-38.296c42.616,-63.189 40.023,-67.635 48.125,-128.447c2.53,-18.992 7.564,-20.223 15.746,-68.633c6.716,-39.734 0.915,-140.665 -5.48,-164.673c-20.489,-76.926 -8.642,-87.14 -26.312,-152.122c-23.722,-87.237 -12.537,-89.451 -39.095,-193.514c-20.51,-80.366 -10.349,-82.258 -27.671,-151.652c-28.343,-113.544 -16.17,-116.122 -36.124,-180.704c-16.848,-54.528 -10.756,-55.929 -28.017,-110.207c-2.664,-8.378 -5.379,-16.739 -8.002,-25.13c-8.52,-27.253 -10.097,-44.078 -13.421,-55.405c-12.293,-41.886 -14.505,-40.98 -26.908,-82.896c-19.606,-66.261 -51.58,-148.561 -62.786,-208.227c-14.631,-77.909 -44.188,-117.117 -47.505,-288.842c-0.906,-46.93 13.794,-137.486 31.567,-178.646c24.245,-56.146 14.526,-59.639 34.618,-99.712c18.266,-36.43 19.448,-51.111 -44.203,-113.228c-111.991,-109.291 -243.401,-247.439 -303.062,-303.717c-2.751,-2.595 -262.248,-261.102 -276.078,-275.236c-54.663,-55.865 -132.711,-131.495 -152.393,-151.128c-10.488,-10.462 -94.978,-94.741 -130.824,-131.046c-106.243,-107.604 -107.421,-106.153 -214.564,-212.796c-259.697,-258.484 -289.558,-276.394 -295.139,-368.118c-4.699,-77.229 19.943,-104.825 31.798,-122.346c45.725,-67.573 175.47,-188.548 229.894,-251.445c114.426,-132.241 181.427,-196.176 229.669,-252.194c196.758,-228.479 286.572,-291.192 292.886,-353.201c6.788,-66.657 -15.293,-74.228 35.384,-148.322c60.927,-89.081 175.276,-106.456 245.267,-137.113c224.263,-98.23 225.719,-94.404 244.969,-103.461c40.882,-19.236 128.223,-50.85 234.555,-96.304c110.935,-47.421 111.358,-45.677 142.165,-60.033c76.856,-35.815 162.81,-60.95 203.257,-89.436c23.637,-16.647 79.554,-121.455 179.592,-127.052c55.061,-3.081 862.68,-1.909 937.696,-1.8c435.512,0.632 613.848,-9.929 700.148,51.193c81.987,58.068 98.607,150.737 102.276,159.918c15.507,38.803 32.162,33.95 341.538,153.828c48.83,18.921 57.674,0.846 97.57,9.357c34.568,7.374 33.785,9.561 68.131,17.732c85.199,20.268 105.008,80.694 167.011,121.245c97.977,64.079 108.327,61.131 152.502,79.474c144.773,60.116 182.711,58.262 228.607,93.004c84.96,64.313 82.967,134.022 89.893,201.663c5.698,55.648 35.476,51.786 111.222,119.315c25.981,23.163 123.226,105.376 133.767,114.925c71.32,64.611 270.128,226.825 306.444,258.583c123.779,108.242 145.811,126.057 161.753,183.171c20.041,71.802 -0.553,112.713 -3.831,122.725c-19.5,59.55 -50.864,82.833 -72.659,115.776c-53.164,80.356 -113.636,144.569 -137.601,179.515c-19.6,28.58 -21.749,26.674 -41.619,55.085c-39.533,56.526 -42.111,54.342 -82.327,110.561c-37.834,52.889 -39.154,51.625 -78.043,103.714c-97.285,130.306 -98.482,129.144 -106.791,140.564c-145.452,199.916 -179.856,233.737 -226.767,298.6c-118.042,163.214 -123.742,158.648 -241.886,321.868c-53.606,74.058 -53.06,74.359 -57.976,80.597c-36.049,45.738 -38.022,43.88 -74.376,89.504c-7.406,9.294 -72.1,90.486 -89.622,118.464c-25.065,40.025 -106.974,135.973 -131.29,170.197c-80.374,113.124 -123.028,159.025 -144.283,188.364c-45.402,62.668 -52.042,61.322 -64.772,73.083c-33.89,31.31 -35.538,41.463 -141.992,40.06c-131.353,-1.73 -130.25,-70.896 -176.8,-40.446c-7.677,5.022 -52.346,45.227 -57.546,51.446c-60.792,72.702 -148.604,134.638 -195.688,274.877c-25.297,75.347 -32.816,73.079 -38.052,111.321c-6.827,49.859 -27.003,142.889 -40.913,330.889c-8.293,112.083 -18.637,151.628 -24.421,262.123c-7.25,138.475 -20.132,136.465 -30.355,206.775c-9.175,63.102 -14.363,61.635 -33.486,122.364c-26.551,84.32 -40.845,109.567 -78.58,180.538c-8.162,15.35 -46.973,88.346 -127.373,176.076c-56.33,61.465 -55.47,61.779 -108.905,125.718c-102.283,122.388 -100.664,123.665 -110.597,133.329Zm-106.978,-2679.677l-11.566,12.298c1.341,3.9 -3.546,8.273 -2.205,12.173c0.586,1.703 53.651,28.763 53.821,28.855c49.137,26.542 135.137,137.878 82.271,161.085c-5.204,2.284 -13.061,5.733 -65.193,-28.227c-68.06,-44.336 -133.109,-66.721 -165.098,-84.447c-80.75,-44.744 -57.89,83.589 -270.059,346.762c-58.445,72.494 -60.613,70.374 -114.942,118.867c-208.686,186.267 -224.659,171.529 -315.851,303.45c-2.703,3.91 -33.607,48.617 -34.014,48.711c-38.969,9.051 -28.032,-15.954 -15.009,-53.812c36.832,-107.071 16.516,-122.571 -25.399,-137.347c-36.341,-12.811 -44.595,-7.63 -113.126,-80.343c-86.954,-92.261 -90.537,-88.543 -176.112,-182.042c-73.507,-80.313 -72.291,-81.252 -78.805,-88.107c-1.751,-1.842 -15.919,-16.751 -30.948,-7.188c-9.442,6.008 -6.053,8.553 -15.965,53.796c-20.511,93.615 -6.761,94.453 2.222,220.881c4.517,63.572 9.601,62.622 24.018,124.795c12.892,55.6 18.286,53.833 30.596,109.585c5.879,26.625 19.256,57.309 22.951,70.233c28.797,100.745 31.363,99.859 33.078,108.793c8.281,43.151 8.43,42.886 23.689,84.015c14.355,38.691 14.86,70.565 28.969,109.777c26.704,74.216 14.243,77.484 38.383,152.551c18.232,56.693 16.984,90.724 33.305,136.04c22.718,63.079 6.256,68.007 33.626,126.959c18.971,40.862 15.178,59.514 36.843,106.576c41.356,89.835 87.725,133.827 151.765,175.863c49.316,32.371 138.95,58.263 189.946,60.377c157.184,6.517 200.358,-11.511 262.845,-24.792c10.191,-2.166 44.056,-9.363 119.973,-50.663c281.559,-153.171 332.918,-443.886 341.718,-478.05c17.891,-69.456 16.733,-258.501 -0.529,-327.578c-0.385,-1.541 -12.591,-68.5 -50.737,-32.544c-31.099,29.314 -94.661,84.44 -102.994,91.667c-5.872,5.092 -62.556,54.253 -74.061,62.877c-41.265,30.933 -49.699,45.9 -64.776,34.893c-8.735,-6.378 -4.725,-19.315 -4.219,-20.948c4.674,-15.079 145.896,-140.212 211.039,-287.853c41.59,-94.259 39.493,-94.969 64.194,-194.81c14.161,-57.236 21.753,-54.599 31.868,-95.304c8.508,-34.24 60.178,-143.875 82.764,-178.065c126.105,-190.896 136.503,-188.411 239.91,-309.692c21.476,-25.189 113.646,-151.715 145.176,-229.101c39.603,-97.201 49.159,-153.375 63.885,-194.83c9.684,-27.261 23.561,-33.513 -0.532,-49.493c-13.492,-8.948 -15.649,-5.333 -26.168,6.81c-18.675,21.559 -17.981,24.46 -30.227,40.135c-85.791,109.808 -225.39,22.995 -260.398,-7.227c-10.938,-9.443 -60.337,-49.565 -81.623,-70.818c-40.528,-40.466 2.276,-64.395 3.539,-64.786c23.025,-7.127 44.669,10.134 55.797,18.115c50.846,36.467 77.613,46.756 95.513,56.008c101.337,52.379 141.26,52.804 203.226,-108.059c32.617,-84.674 14.543,-154.853 -5.122,-182.973c-27.078,-38.718 -53.766,-67.698 -144.282,-60.091c-128.612,10.807 -166.074,154.974 -175.807,176.584c-28.53,63.342 -64.74,30.728 -100.353,80.969c-19.907,28.084 -43.18,50.489 -54.656,69.279c-28.703,46.994 -32.579,44.959 -56.71,81.681c-35.466,53.971 -65.643,86.278 -70.722,95.696c-27.906,51.745 38.892,38.916 114.578,66.735c58.5,21.502 162.611,104.888 133.008,138.625c-19.805,22.571 -47.5,-13.406 -108.162,-33.589c-62.163,-20.683 -60.834,-26.608 -108.145,-29.739Zm-2442.046,-1118.313c-14.263,-13.426 -14.333,-13.041 -28.339,-27.013c-7.157,-7.14 -81.198,-81.002 -89.112,-89.598c-54.157,-58.818 -47.474,-77.953 33.582,-162.126c46.627,-48.42 211.832,-228.227 276.841,-302.176c38.725,-44.05 39.334,-43.186 78.162,-86.892c109.222,-122.944 109.133,-122.812 117.267,-131.558c69.117,-74.319 97.936,-79.355 80.45,-125.114c-17.74,-46.424 -12.21,-52.382 -26.481,-55.986c-17.738,-4.479 -24.813,0.056 -46.16,23.958c-42.576,47.672 -44.447,45.789 -84.656,95.332c-19.899,24.518 -88.778,96.687 -102.979,116.339c-9.219,12.757 -93.016,102.346 -98.094,108.95c-9.322,12.123 -95.938,106.386 -104.366,115.558c-171.709,186.869 -173.418,185.021 -261.094,290.033c-41.623,49.853 -15.68,89.761 -4.108,103.514c2.5,2.971 29.319,34.847 31.58,36.863c54.783,48.847 52.806,50.493 104.608,102.382c69.782,69.9 68.769,70.854 75.015,76.745c73.833,69.644 118.712,118.616 137.992,137.986c103.142,103.619 105.006,101.464 208.491,204.53c65.699,65.433 63.761,67.066 130.508,131.725c5.041,4.883 50.936,49.343 62.221,61.84c38.306,42.424 39.217,41.177 116.748,117.641c110.084,108.57 110.224,108.144 131.516,130.271c68.578,71.268 69.446,70.303 74.997,76.859c17.131,20.235 41.096,38.552 110.82,109.799c112.705,115.167 119.157,122.041 129.306,132.856c53.663,57.179 55.003,55.466 88.359,90.546c164.899,173.422 205.131,213.545 223.362,231.727c176.355,175.88 193.283,209.163 261.341,206.259c107.261,-4.576 339.753,-267.025 372.211,-316.051c53.909,-81.428 60.043,-76.843 63.865,-84.398c4.164,-8.23 4.311,-9.363 -2.189,-16.141c-14.316,-14.928 -26.088,-5.776 -46.86,6.112c-66.593,38.113 -233.903,94.201 -307.211,129.256c-3.733,1.785 -161.082,86.448 -271.163,30.918c-57.759,-29.137 -95.923,-116.433 -141.338,-258.137c-36.398,-113.568 -81.286,-198.414 -203.288,-538.928c-28.311,-79.016 -66.256,-35.007 -79.823,-22.089c-68.221,64.956 -100.561,90.45 -109.796,97.73c-48.449,38.192 -63.924,63.218 -89.601,54.594c-29.192,-9.804 -222.489,-219.066 -238.803,-233.696c-25.467,-22.838 -25.165,-22.708 -49.026,-47.474c-4.329,-4.493 -50.93,-52.863 -54.44,-55.852c-39.282,-33.466 -154.927,-156.342 -198.972,-200.454c-15.999,-16.024 -177.301,-177.569 -200.613,-199.674c-5.654,-5.361 -68.047,-64.521 -70.726,-66.969Zm2522.259,-690.935c4.141,-11.331 3.169,-11.528 10.69,-29.249c32.338,-76.194 229.445,-582.772 249.193,-633.528c88.988,-228.706 87.965,-229.319 101.37,-245.838c26.921,-33.176 73.993,-13.123 79.927,-10.594c138.693,59.086 140.439,54.573 206.292,83.771c38.551,17.092 276.778,113.832 320.784,128.728c105.863,35.834 117.295,59.755 154.705,22.429c52.303,-52.186 16.27,-65.11 -33.221,-84.158c-34.758,-13.378 -32.816,-17.795 -68.602,-27.891c-25.844,-7.292 -62.559,-25.107 -81.292,-31.984c-141.241,-51.85 -149.161,-60.13 -247.322,-98.588c-82.042,-32.142 -81.127,-34.16 -96.949,-40.153c-23.01,-8.716 -22.365,-9.783 -44.837,-19.389c-145.737,-62.294 -170.407,-77.311 -216.003,-56.036c-51.824,24.182 -52.339,64.229 -75.588,103.194c-10.593,17.753 -16.111,53.194 -29.009,82.37c-50.587,114.431 -46.61,115.969 -51.254,125.794c-25.261,53.441 -20.496,55.097 -43.467,109.305c-67.164,158.494 -157.489,406.116 -178.289,455.515c-70.754,168.04 -142.002,374.184 -157.141,403.615c-9.509,18.487 -149.16,408.888 -194.231,509.549c-9.537,21.3 -8.893,21.501 -103.376,272.793c-40.076,106.588 -62.149,141.603 -95.802,234.673c-45.758,126.546 -53.852,139.436 -53.128,166.298c1.385,51.445 29.844,71.54 112.832,104.9c126.775,50.962 125.492,53.934 136.713,57.823c134.265,46.531 136.588,55.136 150.224,43.619c46.314,-39.119 -106.379,-130.676 -128.885,-204.711c-29.356,-96.571 28.345,-165.518 149.602,-327.376c8.152,-10.881 88.42,-110.413 154.598,-201.272c140.528,-192.937 156.869,-204.246 203.533,-267.845c29.054,-39.599 72.081,-82.746 44.124,-109.921c-24.883,-24.187 -231.124,-87.233 -273.773,-109.273c-33.733,-17.432 -42.835,-27.357 -21.932,-88.006c19.256,-55.87 20.112,-55.276 39.62,-110.873c24.739,-70.507 68.534,-175.035 79.897,-207.691Zm-453.338,1861.787c0.218,-4.498 8.654,-5.69 8.872,-10.188c0.106,-2.192 -30.103,-10.314 -37.535,-10.839c-10.909,-0.77 -10.837,3.107 -136.664,3.329c-229.958,0.406 -331.49,16.653 -396.747,-121.519c-17.471,-36.992 -13.859,-38.6 -17.353,-370.89c-0.394,-37.499 1.108,-37.371 -0.062,-468.767c-0.338,-124.491 10.823,-135.419 -3.462,-144.811c-15.656,-10.293 -19.765,-7.775 -215.284,92.23c-113.468,58.037 -122.078,63.84 -142.037,41c-4.263,-4.878 -1.542,-6.276 -32.507,-74.164c-3.815,-8.364 -57.551,-153.334 -74.232,-190.339c-38.063,-84.437 -75.837,-206.213 -88.851,-231.587c-26.173,-51.032 -16.343,-55.004 -58.35,-142.883c-14.876,-31.119 -8.699,-33.271 -23.026,-64.62c-14.691,-32.146 -42.442,-123.437 -91.958,-236.39c-5.193,-11.846 -34.528,-99.468 -58.299,-150.169c-2.628,-5.606 -28.798,-78.245 -43.172,-109.468c-13.554,-29.443 -38.269,-102.494 -32.328,-125.216c12.25,-46.849 70.866,-54.915 105.669,-70c81.556,-35.35 83.393,-30.193 166.851,-65.582c23.373,-9.911 29.858,-8.264 81.336,-30.893c169.93,-74.699 171.99,-69.08 343.497,-140.702c92.072,-38.45 161.786,-44.473 170.723,-92.782c1.553,-8.393 3.448,-56.258 -7.388,-66.218c-11.196,-10.29 -28.226,-11.783 -243.234,82.735c-108.994,47.914 -374.814,149.385 -499.145,200.443c-60.526,24.856 -59.422,27.187 -121.709,47.689c-63.626,20.942 -77.455,34.091 -82.763,39.137c-50.822,48.322 -26.375,89.787 10.984,206.055c2.452,7.632 4.222,6.925 36.007,93.515c10.586,28.838 12.983,27.883 137.65,358.47c12.87,34.129 44.374,104.926 129.922,333.85c31.376,83.96 35.079,82.242 66.216,166.481c2.417,6.54 3.275,6.143 32.524,80.858c37.449,95.661 38.559,94.929 74.575,190.951c26.398,70.379 31.588,68.222 184.328,472.013c24.616,65.076 95.988,239.187 182.921,467.367c26.435,69.386 27.519,68.746 53.501,138.518c52.252,140.315 128.231,91.47 208.618,59.273c51.333,-20.56 135.793,-60.008 288.683,-112.296c59.704,-20.418 59.421,-20.998 121.361,-32.754l1.868,-10.839Zm859.267,431.757l13.701,-13.65c82.061,-82.398 83.857,-80.628 89.731,-88.847c12.111,-16.946 -3.59,-51.257 -38.359,-49.428c-5.155,0.271 -19.473,1.024 -48.766,42.248c-98.435,138.525 -117.138,138.791 -101.774,159.2c18.474,24.54 67.842,-31.804 85.468,-49.524Zm1680.529,-1146.545c12.094,-15.466 123.784,-158.29 148.498,-195.387c42.549,-63.868 129.491,-165.399 251.356,-328.552c119.709,-160.267 129.146,-155.847 136.444,-194.877c16.227,-86.778 -43.109,-105.534 -126.853,-177.782c-9.725,-8.39 -157.512,-131.255 -165.232,-138.31c-36.757,-33.589 -160.474,-130.145 -195.959,-161.972c-48.841,-43.806 -53.264,-40.342 -120.873,-100.3c-86.496,-76.708 -135.282,-111.42 -165.27,-138.078c-25.054,-22.271 -182.252,-151.069 -210.184,-175.475c-38.421,-33.572 -39.532,-31.871 -61.134,-50.128c-47.614,-40.241 -46.79,-40.771 -50.929,-44.234c-97.098,-81.23 -96.324,-82.058 -105.27,-88.46c-32.889,-23.535 -59.42,-67.314 -112.029,-49.009c-36.775,12.796 -86.106,98.938 -104.172,119.991c-31.081,36.22 -88.548,118.756 -126.019,163.848c-28.162,33.89 -113.378,150.642 -143.391,188.846c-116.854,148.739 -114.049,150.625 -172.538,225.472c-75.676,96.841 -73.922,97.843 -149.66,194.787c-132.238,169.263 -128.577,171.886 -166.666,219.711c-16.209,20.352 -16.072,20.18 -196.561,259.104c-125.975,166.76 -335.944,430.696 -401.532,522.665c-72.72,101.97 -131.34,146.342 -95.078,208.078c19.769,33.657 76.989,74.781 84.561,80.223c35.884,25.79 45.388,8.183 113.865,-90.5c152.412,-219.643 231.653,-341.475 408.161,-351.951c106.482,-6.32 162.366,29.816 176.134,36.914c62.323,32.132 113.847,117.288 125.304,187.732c15.685,96.443 22.539,98.685 17.706,165.18c-18.976,261.098 -85.971,379.717 -94.001,401.27c-43.682,117.229 -76.227,136.071 -62.416,178.751c10.571,32.668 126.867,107.403 205.409,169.927c61.78,49.18 61.687,48.75 124.22,96.579c101.948,77.976 159.115,135.193 211.577,139.487c67.16,5.497 89.293,-54.077 139.028,-116.255c122.586,-153.253 193.791,-253.354 203.458,-264.541c54.606,-63.192 193.157,-255.912 232.919,-304.522c47.157,-57.65 44.28,-59.564 90.742,-117.522c19.673,-24.541 73.954,-100.074 75.748,-102.249c74.14,-89.896 178.613,-237.69 280.64,-368.459Zm-1452.497,-495.901c-74.357,-58.311 -122.876,-86.936 -129.32,-114.311c-1.608,-6.832 -4.956,-21.055 37.772,-79.192c6.519,-8.87 60.703,-82.593 83.146,-109.636c66.245,-79.821 81.458,-112.182 118.007,-156.574c29.054,-35.289 32.806,-44.405 64.88,-86.011l431.264,-561.886c70.39,-90.567 85.002,-146.075 169.958,-68.741c51.61,46.979 328.761,271.498 398.759,332.095c54.931,47.554 562.068,465.786 565.306,468.79c28.09,26.057 28.627,25.097 90.283,75.966c78.135,64.465 26.59,109.956 -4.01,148.351c-10.313,12.94 -89.114,111.816 -127.14,163.154c-264.378,356.93 -270.527,352.177 -292.205,384.127c-35.649,52.54 -37.656,51.026 -40.622,55.673c-24.462,38.319 -77.873,100.787 -112.478,150.095c-25.874,36.867 -166.563,216.952 -175.929,223.077c-28.231,18.462 -33.936,9.433 -135.544,-72.51c-10.999,-8.87 -123.999,-100.001 -137.419,-110.967c-230.209,-188.113 -232.77,-184.701 -252.329,-201.584c-92.535,-79.873 -191.424,-153.918 -235.984,-190.971c-67.952,-56.504 -69.81,-53.863 -138.539,-109.388c-88.104,-71.178 -88.355,-70.404 -177.856,-139.557Zm-1544.626,-774.66c0.954,986.894 -1.689,1217.664 -2.901,1323.54c-1.738,151.797 -1.694,151.563 -4.515,303.454c-2.687,144.68 0.373,173.308 40.672,202.056c15.157,10.812 16.501,14.863 382.606,13.854c60.335,-0.166 64.733,6.699 72.254,-7.069c2.382,-4.36 6.447,-8.523 6.34,-13.491c-0.057,-2.628 -4.694,-2.45 -6.719,-4.125c-5.598,-4.629 -4.143,-7.65 -29.418,-14.108c-13.921,-3.557 -62.546,-15.98 -167.959,-63.611c-18.362,-8.297 -117.68,-51.951 -140.076,-140.024c-17.997,-70.773 -9.512,-79.455 69.661,-291.858c17.585,-47.177 18.778,-46.369 35.371,-93.656c4.397,-12.531 8.558,-10.805 59.66,-154.909c16.671,-47.011 77.357,-186.6 141.451,-384.816c16.44,-50.843 61.678,-98.786 -26.615,-98.244c-278.614,1.711 -278.77,2.827 -302.647,-1.187c-38.411,-6.459 -27.233,-42.987 -27.705,-107.045c-0.739,-100.368 2.935,-100.3 0.065,-1254.638c-0.018,-7.15 -10.396,-88.083 82.18,-90.457c27.29,-0.7 27.158,-0.333 827.259,1.73c35.583,0.092 47.187,-7.476 65.103,-50.629c26.579,-64.019 -46.381,-51.148 -51.375,-51.127c-58.457,0.244 -58.387,-0.409 -730.72,-0.147c-210.522,0.082 -224.712,-0.792 -258.32,29.287c-41.156,36.833 -34.117,47.578 -33.751,409.515c0.043,43.016 0.438,433.427 0.1,537.703Zm2329.859,3405.916c-2.46,-28.945 -8.872,-46.872 22.153,-107.473c33.96,-66.335 229.388,-284.716 280.348,-350.687c78.819,-102.038 103.995,-120.903 161.561,-198.92c23.492,-31.837 59.389,-58.068 50.641,-88.553c-4.452,-15.514 -121.345,-129.647 -139.337,-138.095c-47.332,-22.224 -43.095,19.264 -166.737,123.986c-3.293,2.789 -35.055,29.691 -52.395,12.843c-18.355,-17.835 12.32,-51.277 32.413,-75.009c74.628,-88.143 76.887,-85.903 83.331,-93.582c2.618,-3.12 24.609,-29.326 6.88,-50.449c-7.042,-8.39 -12.894,-1.629 -103.847,-89.246c-3.517,-3.388 -32.468,-31.277 -5.568,-60.789c32.381,-35.525 77.473,7.05 91.508,17.364c31.166,22.902 31.909,21.515 63.331,44.013c58.785,42.09 65.063,12.537 116.542,-38.239c45.068,-44.453 52.827,-56.869 72.415,-52.896c25.755,5.223 -2.179,43.943 -45.479,108.827c-28.655,42.939 -53.34,55.289 -13.585,101.883c93.489,109.57 101.401,121.994 113.257,123.601c23.312,3.159 34.988,-23.018 53.406,-45.573c76.064,-93.149 124.069,-154.412 154.804,-176.238c49.379,-35.066 125.447,-15.547 135.281,-11.134c20.381,9.147 69.942,47.369 72.214,49.27c33.896,28.351 35.351,26.201 69.873,53.896c18.594,14.917 19.244,13.869 244.93,169.693c123.426,85.219 121.78,87.217 184.644,130.118c20.441,13.95 201.887,137.777 254.058,176.49c62.533,46.401 64.125,43.675 88.357,61.104c88.998,64.007 93.644,60.184 236.876,162.077c146.405,104.151 146.823,103.116 295.902,203.568c169.638,114.304 79.433,217.519 41.607,270.543c-44.17,61.917 -49.063,57.823 -148.508,181.485c-181.259,225.399 -179.879,226.457 -195.964,245.788c-72.359,86.956 -71.705,87.179 -142.052,175.635c-162.238,204.002 -206.352,262.618 -241.525,281.771c-99.912,54.405 -198.014,-26.599 -235.242,-55.364c-77.211,-59.661 -104.282,-75.679 -111.416,-80.95c-75.512,-55.796 -77.116,-53 -152.471,-109.222c-66.256,-49.433 -327.235,-231.739 -386.606,-274.912c-97.502,-70.901 -183.905,-127.031 -219.097,-153.942c-128.67,-98.394 -232.293,-158.794 -317.674,-219.496c-177.387,-126.114 -224.82,-130.987 -248.829,-223.185Zm965.56,609.537c117.045,82.09 485.442,346.751 488.93,348.965c2.256,1.432 49.122,29.054 76.615,50.158c70.934,54.448 120.122,-14.541 130.928,-25.661c10.738,-11.051 103.229,-123.224 217.551,-265.018c109.471,-135.776 190.698,-238.766 208.591,-260.389c14.94,-18.056 142.41,-172.104 185.712,-226.556c53.134,-66.816 91.248,-95.239 70.483,-147.785c-9,-22.774 -15.826,-17.183 -146.264,-115.506c-48.047,-36.217 -244.528,-164.532 -324.801,-224.703c-11.468,-8.596 -12.232,-7.441 -145.79,-104.111c-9.664,-6.995 -10.966,-4.894 -123.236,-83.969c-74.447,-52.435 -77.778,-47.414 -186.029,-128.294c-29.886,-22.33 -32.648,-18.24 -383.974,-264.634c-2.034,-1.427 -81.081,-53.437 -133.05,-89.804c-4.651,-3.255 -39.668,-27.76 -70.434,-8.592c-27.732,17.278 -98.436,108.568 -163.092,180.454c-45.518,50.607 -16.332,58.433 15.849,118.455c61.153,114.058 91.213,166.004 76.352,181.113c-18.749,19.062 -40.507,-21.652 -42.364,-25.127c-24.657,-46.139 -93.135,-154.856 -121.213,-158.821c-22.73,-3.21 -20.772,5.924 -118.885,120.81c-8.162,9.558 -5.292,11.676 -97.317,123.34c-81.69,99.125 -82.919,97.71 -163.444,197.786c-6.137,7.628 -45.825,54.322 -49.827,59.031c-8.39,9.872 -40.518,54.272 -48.369,72.506c-35.064,81.434 47.517,108.675 184.305,208.571c27.88,20.361 110.601,70.643 235.716,163.646c24.487,18.202 150.768,102.439 240.377,171.271c97.922,75.218 175.64,124.852 186.68,132.863Zm486.26,242.619c-23.28,-15.823 -23.364,-15.509 -25.368,-16.898c-8.037,-5.568 -7.827,-5.363 -15.955,-10.887c-18.222,-12.385 -41.062,-27.908 -224.02,-160.208c-88.569,-64.046 -89.274,-62.929 -96.919,-68.564c-146.167,-107.736 -286.399,-197.41 -306.038,-219.53c-34.703,-39.088 25.741,-91.735 104.412,-195.222c32.637,-42.932 31.966,-43.147 65.067,-85.542c45.917,-58.809 147.645,-195.541 147.981,-195.957c117.201,-144.916 122.302,-165.301 179.583,-234.187c39.3,-47.262 49.418,-68.281 70.858,-94.879c37.485,-46.502 46.902,-53.714 85.451,-26.184c22.34,15.954 23.305,14.076 97.654,67.17c230.35,164.497 234.469,158.14 464.788,322.835c187.758,134.26 267.332,154.105 236.984,217.174c-4.412,9.168 -5.19,10.786 -80.815,98.197c-83.445,96.45 -175.557,214.267 -186.793,227.889c-74.573,90.405 -73.814,90.887 -80.334,98.707c-270.494,324.463 -262.095,346.582 -301.354,354.274c-12.26,2.402 -22.11,4.332 -135.182,-78.186Zm-870.079,1891.097c29.839,-90.951 29.059,-94.408 30.754,-137.789c1.451,-37.134 -4.904,-100.269 -7.613,-109.408c-26.802,-90.422 -54.726,-130.558 -61.744,-140.645c-44.023,-63.275 -67.386,-79.918 -101.225,-105.999c-78.958,-60.857 -218.147,-105.875 -246.525,-111.55c-76.079,-15.214 -75.344,-17.194 -81.998,-18.12c-176.589,-24.567 -282.923,5.879 -308.733,-19.833c-14.618,-14.562 -5.865,-56.264 -5.562,-59.59c14.452,-158.802 12.737,-171.595 15.487,-192.681c19.635,-150.541 48.225,-481.873 55.513,-537.671c20.841,-159.558 21.477,-160.813 31.439,-170.46c20.101,-19.466 25.975,-10.578 473.339,-13.641c264.806,-1.814 281.72,19.79 409.503,-97.271c22.698,-20.794 26.302,-23.189 47.448,-10.404c12.437,7.519 4.326,25.742 2.978,70.715c-9.895,330.143 0.616,330.083 -1.838,358.672c-0.287,3.349 -2.777,32.356 -30.83,28.55c-6.526,-0.886 -35.646,-17.737 -38.642,-19.471c-43.726,-25.304 -53.498,-20.888 -609.184,-24.452c-56.361,-0.361 -71.172,4.143 -77.312,84.396c-11.747,153.539 -27.243,212.46 -18.862,233.789c13.136,33.433 129.731,9.29 219.627,30.512c61.921,14.618 62.213,12.01 125.094,22.615c11.382,1.92 31.774,5.359 137.883,42.513c60.432,21.16 164.045,83.465 194.157,109.532c18.92,16.379 87.74,74.749 139.11,165.628c32.754,57.946 46.613,91.459 67.022,166.833c34.709,128.186 17.151,294.418 9.114,330.331c-48.791,218.009 -127.205,277.181 -156.15,309.432c-125.204,139.503 -322.139,165.165 -377.13,176.516c-115.965,23.937 -270.04,-1.533 -276.211,-3.193c-69.826,-18.783 -70.019,-16.95 -138.916,-38.029c-63.55,-19.443 -166.176,-75.728 -193.808,-96.822c-75.422,-57.574 -91.613,-75.083 -61.402,-123.021c26.558,-42.142 21.794,-44.575 47.447,-87.394c24.637,-41.121 91.538,-163.193 99.357,-177.461c2.03,-3.705 25.06,-45.726 51.383,-12.194c13.161,16.765 66.53,175.529 184.755,269.964c83.321,66.555 202.025,70.3 231.09,67.01c148.556,-16.818 195.045,-105.629 221.185,-159.914Zm-3080.255,-67.898c-8.527,-50.155 -8.898,-51.333 -10.257,-55.651c-8.597,-27.305 -9.361,-26.787 -16.171,-54.525c-31.578,-128.622 -33.456,-128.053 -36.177,-139.235c-5.711,-23.473 -31.793,-113.319 -55.651,-165.35c-10.497,-22.891 -31.814,-89.672 -46.91,-121.625c-30.721,-65.025 -43.469,-107.542 -121.254,-276.955c-12.371,-26.943 -7.025,-29.051 -22.834,-57.653c-45.259,-81.883 -39.729,-90.383 -57.932,-91.813c-29.347,-2.304 -15.981,16.256 -51.481,94.575c-2.045,4.512 -14.288,40.375 -22.53,48.786c-15.431,15.748 -45.751,6.293 -49.556,5.107c-63.992,-19.955 -152.227,-75.898 -164.713,-83.815c-62.163,-39.413 -19.518,-73.581 -1.928,-137.326c15.637,-56.668 22.586,-54.334 36.869,-111.284c10.679,-42.582 16.78,-40.416 28.643,-82.512c22.672,-80.456 28.622,-86.556 19.115,-109.465c-7.698,-18.548 -61.236,-38.126 -82.635,-43.768c-83.093,-21.91 -114.066,-33.666 -74.293,-109.796c35.885,-68.689 41.606,-83.313 87.304,-80.074c33.012,2.34 74.035,5.247 413.677,2.922c73.292,-0.502 95.338,-8.74 125.712,92.643c31.03,103.573 125.368,303.984 134.381,332.075c5.582,17.397 7.2,22.438 94.227,208.045c49.79,106.19 37.991,117.776 59.342,121.956c50.4,9.867 55.681,-111.37 137.752,-54.843c8.115,5.589 103.797,87.214 119.952,101.568c56.207,49.944 3.42,87.465 -18.084,175.595c-16.742,68.613 -29.057,66.099 -31.37,136.457c-5.125,155.887 12.612,193.002 24.079,234.862c12.794,46.707 7.429,47.797 23.947,111.142c22.471,86.178 15.951,87.879 43.62,165.135c26.429,73.793 -26.569,59.734 -253.653,306.76c-49.288,53.617 -61.094,26.638 -143.414,-2.949c-38.295,-13.764 -35.214,-42.02 -38.707,-70.74c-7.571,-62.264 -11.36,-61.407 -18.159,-123.582c-9.114,-83.347 -16.682,-81.802 -30.908,-164.669Zm645.005,-678.185c-6.488,-23.559 -6.329,-23.444 -7.007,-25.443c-2.698,-7.966 -29.737,-87.802 -34.422,-99.342c-23.799,-58.62 -63.305,-11.174 -116.313,-37.283c-13.505,-6.652 -80.13,-63.929 -106.096,-88.225c-36.436,-34.093 -17.229,-42.138 8.984,-120.876c17.718,-53.22 26.036,-54.177 40.556,-96.896c6.203,-18.249 15.554,-33.777 24.864,-56.311c44.466,-107.628 29.982,-129.312 23.73,-138.671c-33.25,-49.779 -61.704,-45.885 -116.088,-78.384c-43.547,-26.023 -73.879,-23.235 -52.738,-83.767c24.098,-69.002 29.221,-75.998 37.989,-85.221c13.516,-14.216 28.34,-13.502 43.27,-12.453c106.316,7.47 126.825,12.71 137.554,15.451c56.116,14.338 56.983,7.47 303.594,7.758c64.638,0.075 61.375,35.231 60.522,115.511c-1.028,96.794 6.245,96.114 12.961,150.788c7.94,64.645 16.105,62.584 32.014,125.875c1.632,6.494 12.852,51.129 20.807,81.073c12.74,47.953 19.159,50.521 24.145,69.852c20.466,79.364 90.916,278.085 106.121,332.259c4.338,15.453 10.812,38.521 60.942,191.152c44.291,134.853 96.605,300.718 97.411,303.049c49.985,144.49 56.265,143.093 122.391,207.651c64.642,63.109 122.967,95.878 134.777,102.513c46.874,26.335 42.476,37.229 26.312,88.449c-18.26,57.862 -30.428,103.162 -90.622,81.016c-53.768,-19.781 -54.381,-16.795 -111.038,-26.465c-81.622,-13.931 -81.106,-19.713 -221.034,-20.848c-147.657,-1.198 -147.258,4.387 -221.298,19.41c-68.859,13.972 -68.286,15.246 -123.567,30.492c-54.45,15.017 -49.196,-24.827 -72.326,-66.226c-2.311,-4.137 -22.919,-41.022 -18.608,-56.238c6.62,-23.363 11.863,-19.93 31.019,-34.786c103.004,-79.881 102.8,-103.295 120.941,-142.767c22.319,-48.564 6.298,-50.945 -7.478,-112.339c-18.05,-80.441 -23.077,-78.842 -34.779,-125.585c-13.852,-55.329 -19.177,-53.665 -31.137,-109.598c-6.881,-32.179 -29.953,-81.133 -41.009,-124.199c-8.076,-31.458 -32.416,-86.125 -36.432,-98.193c-13.785,-41.427 -13.61,-41.238 -28.912,-82.182Zm1356.281,395.514c8.895,-6.708 34.988,-22.487 56.096,-50.948c21.364,-28.808 25.912,-49.092 28.892,-54.537c1.56,-2.851 16.883,-23.016 34.493,-4.443c13.508,14.247 -0.339,33.229 0.594,88.401c0.261,15.458 2.431,143.715 -1.112,193.253c-3.065,42.866 -43.827,35.576 -115.443,35.541c-604.163,-0.295 -607.429,2.486 -619.155,-9.574c-25.712,-26.445 16.727,-50.877 133.613,-207.772c59.177,-79.433 60.971,-77.916 65.897,-84.967c68.488,-98.039 71.173,-95.878 76.964,-104.495c6.656,-9.904 67.631,-100.634 82.778,-124.088c60.422,-93.557 62.066,-92.683 105.486,-195.535c19.232,-45.556 42.369,-171.698 21.267,-248.326c-12.317,-44.727 -23.819,-69.536 -60.804,-93.725c-71.172,-46.548 -183.37,-10.087 -208.384,108.221c-17.019,80.495 -6.673,108.276 -6.327,111.417c0.302,2.74 3.544,32.171 -19.13,28.666c-10.583,-1.636 -27.259,-31.929 -46.355,-51.635c-9.163,-9.456 -107.483,-110.915 -113.293,-119.386c-31.069,-45.295 69.29,-117.973 133.568,-145.053c74.067,-31.204 112.551,-42.736 178.087,-45.346c126.448,-5.035 178.044,21.396 193.767,26.994c132.021,47.003 190.552,166.997 197.33,249.483c11.473,139.609 -36.528,216.851 -106.794,313.705c-21.599,29.771 -105.493,128.646 -139.296,163.211c-187.451,191.681 -210.936,212.1 -210.462,226.738c0.827,25.54 44.582,17.628 134.411,17.733c146.129,0.17 147.229,-0.199 203.311,-23.533Zm-2766.576,-379.914c7.033,-27.672 6.119,-27.685 15.263,-54.545c20.527,-60.297 16.385,-71.718 28.43,-78.534c17.288,-9.783 49.904,11.393 50.286,11.589c140.759,72.22 184.517,70.82 182.087,121.305c-1.054,21.905 -66.712,210.873 -69.478,220.779c-24.882,89.093 -26.903,88.38 -28.841,96.175c-12.148,48.859 -15.213,47.662 -28.026,96.379c-26.749,101.705 -31.346,101.969 -25.013,206.929c5.966,98.874 95.198,123.178 108.375,151.833c13.148,28.593 0.107,96.091 0.013,96.388c-13.367,42.086 -103.843,9.858 -289.411,27.527c-18.196,1.733 -127.655,12.155 -223.152,49.042c-62.757,24.241 -81.264,26.815 -101.801,-37.013c-22.52,-69.992 -11.984,-81.505 5.139,-97.522c141.298,-132.167 155.131,-164.394 203.534,-275.527c48.641,-111.677 37.884,-115.386 50.99,-147.644c16.546,-40.726 17.733,-40.149 28.218,-83.09c8.856,-36.267 14.008,-34.367 20.302,-57.078c15.173,-54.743 14.179,-54.771 33.272,-108.512c10.714,-30.155 9.308,-47.121 23.977,-83.969c14.454,-36.307 11.405,-37.101 15.834,-54.512Zm4634.874,-2859.859c-14.687,-29.833 -13.302,-30.374 -17.33,-63.305c-8.958,-73.24 -43.606,-180.058 -48.576,-195.379c-5.18,-15.97 -15.176,-55.771 -40.1,-104.989c-2.897,-5.721 -2.312,-5.88 -33.835,-72.667c-39.765,-84.25 -127.02,-209.013 -141.963,-215.395c-20.434,-8.728 -38.007,4.128 -72.692,45.677c-35.256,42.233 -0.521,46.412 65.572,210.508c8.023,19.921 32.942,68.913 22.786,83.621c-17.301,25.055 -37.646,-11.399 -39.276,-14.319c-41.183,-73.79 -100.111,-157.22 -110.986,-165.324c-31.866,-23.745 -38.562,-9.488 -95.761,57.354c-4.399,5.14 -49.158,57.446 -58.881,60.697c-3.639,1.217 -48.542,8.68 -9.446,-47.021c5.136,-7.317 89.799,-120.863 84.497,-153.61c-3.535,-21.835 -16.893,-30.023 -126.33,-125.252c-31.012,-26.986 -63.821,-36.949 -68.037,-54.338c-8.88,-36.624 39.196,-72.868 64.288,-61.892c2.686,1.175 10.186,4.455 29.165,22.186c19.425,18.148 84.021,66.87 120.199,100.811c2.767,2.596 22.244,27.682 45.576,21.955c2.63,-0.646 9.456,0.715 45.315,-52.134c19.353,-28.523 18.461,-47.929 -110.479,-171.42c-72.386,-69.327 -88.677,-62.923 -84.066,-92.341c2.937,-18.737 63.555,-79.14 67.966,-80.875c19.442,-7.647 23.216,-3.826 107.633,81.829c34.063,34.563 92.528,97.948 100.472,106.56c58.366,63.278 114.848,-92.614 174.681,-75.054c11.455,3.362 28.337,27.601 11.868,61.841c-5.653,11.752 -42.528,66.944 -54.343,81.902c-15.727,19.91 -41.805,39.69 -17.409,75.777c1.234,1.825 104.532,167.135 149.19,325.277c40.106,142.023 29.024,152.275 56.257,290.51c15.294,77.633 5.924,115.279 1.257,117.891c-1.885,1.055 -3.369,-3.502 -5.526,-3.387c-6.55,0.35 -5.279,3.965 -11.685,4.308Zm-862.16,1348.294c-9.952,9.49 -16.769,16.03 -19.023,18.108c-53.667,49.467 -53.24,49.828 -57.925,54.102c-194.372,177.295 -191.063,191.654 -215.937,193.075c-7.768,0.444 -14.009,0.801 -76.789,-59.688c-13.024,-11.734 -13.103,-11.548 -14.222,-12.574c-4.488,-4.116 -4.375,-3.972 -8.923,-8.068c-10.195,-9.185 -22.973,-20.697 -124.658,-117.819c-49.226,-47.017 -49.755,-46.387 -53.995,-50.511c-81.065,-78.851 -159.997,-146.055 -170.242,-161.367c-18.102,-27.056 23.65,-54.422 80.954,-111.614c23.773,-23.726 23.377,-23.916 47.39,-47.271c19.46,-18.927 52.925,-52.651 77.439,-77.468l2.469,3.197c30.016,38.86 153.807,107.388 223.892,160.366c8.297,6.272 9.171,4.643 107.698,72.838c30.288,20.964 54.212,41.755 132.795,90.324c4.895,3.025 38.337,25.307 41.661,27.522c15.396,10.258 23.892,18.935 27.415,26.85Z"/>
</svg>
